<svg width="44" height="44" viewBox="0 0 44 44" fill="none" xmlns="http://www.w3.org/2000/svg">
<path fill-rule="evenodd" clip-rule="evenodd" d="M22 44C34.1503 44 44 34.1502 44 22C44 9.84977 34.1503 0 22 0C9.84973 0 0 9.84977 0 22C0 34.1502 9.84973 44 22 44ZM24.4991 39.1672C32.9747 37.9911 39.5 30.716 39.5 21.9167C39.5 20.7248 39.3803 19.5608 39.1522 18.4362C39.1157 18.2955 39.0003 17.9447 38.695 17.6109C38.4064 17.2954 38.1675 17.2933 38.0605 17.3146L30.9741 20.4667C30.6503 20.6272 30.1303 20.8981 29.9166 21.0833C29.7448 21.2322 29.5184 21.5317 29.345 21.7781L24.164 30.7519L24.1667 30.75C24.1667 30.75 23.6428 31.6832 23.5 32.0834C23.3719 32.4423 23.3013 33.1628 23.2881 33.3076V37.6433C23.3436 37.9309 23.4628 38.4194 23.6667 38.6667C23.9667 39.0306 24.5 39.1668 24.5 39.1668L24.4991 39.1672ZM4.66667 21.9167C4.66667 30.5273 10.9152 37.6785 19.1253 39.0832C19.3935 39.0772 20.0173 39.0323 20.25 38.75C20.5477 38.3889 20.6649 37.3493 20.6667 37.3335V33.2497C20.6661 33.233 20.6413 32.4791 20.5 32.0833C20.3572 31.6831 19.8333 30.75 19.8333 30.75L19.8359 30.7516L14.7028 21.8608C14.5891 21.7277 14.2907 21.3866 14.0367 21.1665C13.7156 20.8883 13 20.4167 13 20.4167L13.0009 20.4167L6.34607 17.4566C6.13491 17.4112 5.75287 17.3813 5.5 17.6667C5.23808 17.9623 5.05182 18.4339 4.9674 18.6771C4.76995 19.7267 4.66667 20.8097 4.66667 21.9167ZM37.057 14.8918C37.1523 14.8383 37.3333 14.68 37.3333 14.25C37.3333 13.7589 37.2743 13.445 37.2556 13.358C34.2661 8.06972 28.5916 4.5 22.0833 4.5C15.5604 4.5 9.875 8.08585 6.89088 13.3939C6.84409 13.5146 6.75 13.8117 6.75 14.25C6.75 14.6626 6.9168 14.8251 7.01442 14.8848L14.9121 18.3977C15.1192 18.4765 15.4131 18.5791 15.6521 18.627C16.0688 18.7103 16.6667 18.75 16.6667 18.75H27.4167C27.4167 18.75 27.9167 18.7498 28.3333 18.6665C28.6139 18.6104 28.97 18.4788 29.1727 18.3988L37.0031 14.9158C37.0011 14.9164 37 14.9167 37 14.9167L37.0045 14.9152L37.057 14.8918Z" fill="white"/>
</svg>
